<svg id="Group_1220" data-name="Group 1220" xmlns="http://www.w3.org/2000/svg" xmlns:xlink="http://www.w3.org/1999/xlink" viewBox="-89 -876 375 667">
  <defs>
    <style>
      .cls-1 {
        fill: #fff;
        stroke: #707070;
      }

      .cls-2 {
        fill: #071a23;
      }

      .cls-3 {
        fill: url(#radial-gradient);
      }

      .cls-4 {
        stroke: none;
      }

      .cls-5 {
        fill: none;
      }
    </style>
    <radialGradient id="radial-gradient" cx="371.811" cy="125.062" r="41.6" gradientTransform="translate(-2.888 -4.059) scale(1.549 1.549)" gradientUnits="userSpaceOnUse">
      <stop offset="0" stop-color="#72bf44"/>
      <stop offset="1" stop-color="#11b14b"/>
    </radialGradient>
  </defs>
  <g id="Rectangle_476" data-name="Rectangle 476" class="cls-1" transform="translate(-89 -876)">
    <rect class="cls-4" width="375" height="667"/>
    <rect class="cls-5" x="0.5" y="0.5" width="374" height="666"/>
  </g>
  <g id="eps-02" transform="translate(0.251 -630)">
    <g id="XMLID_25_" transform="translate(0 92.312)">
      <path id="XMLID_33_" class="cls-2" d="M550.767,369.1a4.865,4.865,0,0,0-5.719,3.813v.007c-.049.243-5.079,24.478-21.078,34.707-7.013,4.483-15.307,5.624-24.649,3.387h0a4.865,4.865,0,0,0-5.864,3.6l-1.134,4.739,4.735,1.133a48.877,48.877,0,0,0,10.761,1.394,38.079,38.079,0,0,0,21.443-6.075c19.5-12.5,25.11-39.827,25.34-40.984l.946-4.77Z" transform="translate(-359.592 -338.946)"/>
      <path id="XMLID_32_" class="cls-2" d="M518.122,380.6a24.532,24.532,0,0,0,8.675-18.831c-.08-6.907-3.109-10.5-5.635-12.295-4.862-3.458-12.016-3.538-21.871-.241l-4.617,1.544,1.545,4.621a4.865,4.865,0,0,0,6.157,3.071h0c8.979-3,12.18-1.74,13.138-1.058,1,.709,1.515,2.213,1.542,4.473a14.819,14.819,0,0,1-5.3,11.343c-6.368,5.492-13.792,6.964-22.067,4.382h0A4.865,4.865,0,0,0,483.6,380.8l-1.452,4.651,4.648,1.451a35.747,35.747,0,0,0,10.625,1.684A31,31,0,0,0,518.122,380.6Z" transform="translate(-354.373 -327.563)"/>
      <path id="XMLID_28_" class="cls-2" d="M313.119,383.253c.484.015.962.022,1.438.022,11.828,0,21.2-4.559,27.174-13.237,4.926-7.161,6.354-15.2,7.122-19.523l.878-4.94-4.8-.853a4.865,4.865,0,0,0-5.641,3.939l-.027.15c-1.94,10.926-5.85,21.994-19.265,24.289a22.641,22.641,0,0,0,4.321-12.479h0a22.78,22.78,0,1,0-35,18.329,30.263,30.263,0,0,1-14.048.509,12.013,12.013,0,0,1-5.353-2.554l-.18-.14a13.447,13.447,0,0,1-3.734-5.627c-1.939-5.506-.484-12.054,4.325-19.462l0,0a4.865,4.865,0,0,0-1.431-6.729l-4.087-2.654-2.651,4.084c-.463.713-.893,1.415-1.3,2.109A22.774,22.774,0,1,0,241.625,384.7q.445.017.886.017a22.721,22.721,0,0,0,16.009-6.608A21.787,21.787,0,0,0,273.5,389.036a40.7,40.7,0,0,0,7.541.725c6.3,0,14.358-1.536,25.634-6.818C309.831,383.109,312.529,383.235,313.119,383.253ZM242,374.971a13.043,13.043,0,0,1,.495-26.076c.168,0,.338,0,.507.01a13.043,13.043,0,0,1-1,26.067Zm46.524-15.724a13.058,13.058,0,0,1,13.027-12.542c.168,0,.338,0,.507.01a13.057,13.057,0,0,1,12.532,13.535h0a13.057,13.057,0,0,1-13.027,12.541c-.168,0-.338,0-.507-.01A13.057,13.057,0,0,1,288.524,359.247Z" transform="translate(-219.72 -322.507)"/>
      <path id="XMLID_27_" class="cls-2" d="M387.389,448.549h0a4.865,4.865,0,0,0-3.324,6.024l1.353,4.681,4.678-1.352c15.683-4.531,33.194-.059,33.466.012h0a4.865,4.865,0,0,0,5.949-3.456l1.248-4.71-4.707-1.247C425.228,448.284,405.757,443.24,387.389,448.549Z" transform="translate(-303.946 -378.518)"/>
      <ellipse id="XMLID_26_" class="cls-2" cx="5.397" cy="5.397" rx="5.397" ry="5.397" transform="translate(76.44)"/>
    </g>
    <path id="XMLID_22_" class="cls-3" d="M419.519,173.255q0-.554-.028-1.1A26.523,26.523,0,0,0,397.175,147.1l20.559-25.811-2.882-2.3a6.054,6.054,0,0,0-8.507.964L386.878,144.4l8.816-24.7-3.47-1.238a6.053,6.053,0,0,0-7.736,3.667l-8.195,22.961V125.7h-3.684a6.054,6.054,0,0,0-6.054,6.054v43.382h.074a26.475,26.475,0,0,0,52.861-.779Q419.519,173.809,419.519,173.255Zm-9.753.6a11.692,11.692,0,1,1,0-1.2c.007.2.015.4.015.6S409.772,173.656,409.766,173.856Z" transform="translate(-295.062 -117.674)"/>
  </g>
</svg>
