<svg xmlns="http://www.w3.org/2000/svg" viewBox="0 0 602.97 708.43"><defs><style>.cls-1{opacity:0.46;}.cls-2{fill:#fff;}.cls-3{fill:#6c6;}.cls-4{fill:#f90;stroke:#000;stroke-miterlimit:10;}</style></defs><title>Asset 2</title><g id="Layer_2" data-name="Layer 2"><g id="Layer_1-2" data-name="Layer 1"><g class="cls-1"><path class="cls-2" d="M301.49,113.46C463.57,113.46,595,244.86,595,406.94S463.57,700.43,301.49,700.43,8,569,8,406.94,139.4,113.46,301.49,113.46m0-8a300.57,300.57,0,1,0,117.35,23.7,299.61,299.61,0,0,0-117.35-23.7Z"/></g><rect class="cls-3" x="201" y="56.33" width="197.5" height="158.5"/><path class="cls-4" d="M357.87,100.35a27.4,27.4,0,0,1-7.35,9.22l7.48,6.68a4.83,4.83,0,0,0,3.74,1.34,5.08,5.08,0,0,0,3.88-2,6.39,6.39,0,0,0-.53-8.69Z"/><path class="cls-4" d="M272.08,68.28c-10.16,0-18.44,8.69-18.44,19.38S261.93,107,272.08,107s18.44-8.55,18.44-19.38S282.24,68.28,272.08,68.28Z"/><path class="cls-4" d="M333.82,68.28c-10.16,0-18.44,8.69-18.44,19.38S323.66,107,333.82,107s18.44-8.69,18.44-19.38S344,68.28,333.82,68.28Z"/><path class="cls-4" d="M302.49.5A134.34,134.34,0,1,0,436.82,134.84,134.34,134.34,0,0,0,302.49.5Zm82.65,181a14.58,14.58,0,0,1-14.3,14.7,13.23,13.23,0,0,1-5.61-1.2v10.16a4.41,4.41,0,0,1-8.82,0V142a4.41,4.41,0,0,1,8.82,0v39.44a5.63,5.63,0,1,0,11.23,0V138.84a23.88,23.88,0,0,0-5.88-15.77,13.14,13.14,0,0,1-7.88,3.34h-1.07a14,14,0,0,1-9.22-3.61l-9.62-8.69a24.57,24.57,0,0,1-8.82,1.6,26.13,26.13,0,0,1-8.55-1.47l-22.85,14.7v75.92a4.41,4.41,0,0,1-8.82,0v-79.4c0-.13.13-.27.13-.4s.13-.27.13-.4.13-.27.27-.4a.41.41,0,0,1,.13-.27c0-.13.13-.27.27-.4s.13-.13.27-.27l.27-.27c.13,0,.27-.13.4-.27l21.25-13.63a27.36,27.36,0,0,1-6.95-8.69l-23.79,14.43a4.5,4.5,0,0,1-2.27.67H250.43c-12,0-21.92,10.42-21.92,23.12v42.65a5.63,5.63,0,1,0,11.23,0V142a4.41,4.41,0,0,1,8.82,0v63.09a4.41,4.41,0,0,1-8.82,0V195a13.23,13.23,0,0,1-5.61,1.2,14.49,14.49,0,0,1-14.3-14.7V138.84c0-17.51,13.76-31.8,30.6-31.8h2A29.12,29.12,0,0,1,245,87.65c0-15.5,12.16-28.06,27.13-28.06s27.13,12.56,27.13,28.06a30.11,30.11,0,0,1-2,10.42l9.89-6a25,25,0,0,1-.4-4.54c0-15.5,12.16-28.06,27.13-28.06S360.95,72,360.95,87.52a32.74,32.74,0,0,1-.27,3.61L371,100.35a15,15,0,0,1,4.41,15.1,32,32,0,0,1,9.76,23.39Z"/></g></g></svg>