<svg xmlns="http://www.w3.org/2000/svg" width="1080" height="1920"><path d="M562,885L470,801L463,886Z" fill="#43b837" stroke="#43b837" stroke-width="1.51"/><path d="M562,885L654,799L470,801Z" fill="#3fb435" stroke="#3fb435" stroke-width="1.51"/><path d="M562,885L707,873L654,799Z" fill="#35ac2d" stroke="#35ac2d" stroke-width="1.51"/><path d="M470,801L315,894L463,886Z" fill="#4dc038" stroke="#4dc038" stroke-width="1.51"/><path d="M463,886L482,1064L562,885Z" fill="#3cb237" stroke="#3cb237" stroke-width="1.51"/><path d="M315,894L482,1064L463,886Z" fill="#45ba37" stroke="#45ba37" stroke-width="1.51"/><path d="M562,885L738,1027L707,873Z" fill="#2ca429" stroke="#2ca429" stroke-width="1.51"/><path d="M470,801L317,728L315,894Z" fill="#55c839" stroke="#55c839" stroke-width="1.51"/><path d="M516,603L317,728L470,801Z" fill="#55c839" stroke="#55c839" stroke-width="1.51"/><path d="M654,799L516,603L470,801Z" fill="#48bc37" stroke="#48bc37" stroke-width="1.51"/><path d="M714,706L516,603L654,799Z" fill="#41b62f" stroke="#41b62f" stroke-width="1.51"/><path d="M707,873L714,706L654,799Z" fill="#35ac28" stroke="#35ac28" stroke-width="1.51"/><path d="M482,1064L599,1081L562,885Z" fill="#32a933" stroke="#32a933" stroke-width="1.51"/><path d="M317,728L255,736L315,894Z" fill="#57c83d" stroke="#57c83d" stroke-width="1.51"/><path d="M294,577L255,736L317,728Z" fill="#5dcc3f" stroke="#5dcc3f" stroke-width="1.51"/><path d="M599,1081L738,1027L562,885Z" fill="#2aa32b" stroke="#2aa32b" stroke-width="1.51"/><path d="M882,722L761,626L714,706Z" fill="#389c27" stroke="#389c27" stroke-width="1.51"/><path d="M714,706L600,571L516,603Z" fill="#44b633" stroke="#44b633" stroke-width="1.51"/><path d="M315,894L284,1046L482,1064Z" fill="#47ba36" stroke="#47ba36" stroke-width="1.51"/><path d="M482,1064L599,1171L599,1081Z" fill="#2aa32b" stroke="#2aa32b" stroke-width="1.51"/><path d="M204,1008L284,1046L315,894Z" fill="#49ba3b" stroke="#49ba3b" stroke-width="1.51"/><path d="M284,1046L452,1156L482,1064Z" fill="#3eb32f" stroke="#3eb32f" stroke-width="1.51"/><path d="M599,1081L698,1127L738,1027Z" fill="#1f9b21" stroke="#1f9b21" stroke-width="1.51"/><path d="M714,706L761,626L600,571Z" fill="#3cb02b" stroke="#3cb02b" stroke-width="1.51"/><path d="M876,844L714,706L707,873Z" fill="#329b26" stroke="#329b26" stroke-width="1.51"/><path d="M452,1156L599,1171L482,1064Z" fill="#2ea62b" stroke="#2ea62b" stroke-width="1.51"/><path d="M599,1171L698,1127L599,1081Z" fill="#219c22" stroke="#219c22" stroke-width="1.51"/><path d="M516,603L294,577L317,728Z" fill="#5ccd3c" stroke="#5ccd3c" stroke-width="1.51"/><path d="M341,479L294,577L516,603Z" fill="#5ccc3f" stroke="#5ccc3f" stroke-width="1.51"/><path d="M284,1046L347,1214L452,1156Z" fill="#3fb32d" stroke="#3fb32d" stroke-width="1.51"/><path d="M154,870L204,1008L315,894Z" fill="#4ebd3f" stroke="#4ebd3f" stroke-width="1.51"/><path d="M255,736L154,870L315,894Z" fill="#54c440" stroke="#54c440" stroke-width="1.51"/><path d="M104,813L154,870L255,736Z" fill="#5fcb43" stroke="#5fcb43" stroke-width="1.51"/><path d="M879,1070L876,844L738,1027Z" fill="#238223" stroke="#238223" stroke-width="1.51"/><path d="M738,1027L876,844L707,873Z" fill="#299225" stroke="#299225" stroke-width="1.51"/><path d="M294,577L193,662L255,736Z" fill="#5dcb42" stroke="#5dcb42" stroke-width="1.51"/><path d="M876,844L882,722L714,706Z" fill="#349225" stroke="#349225" stroke-width="1.51"/><path d="M154,870L121,871L204,1008Z" fill="#59c543" stroke="#59c543" stroke-width="1.51"/><path d="M104,813L121,871L154,870Z" fill="#64cd45" stroke="#64cd45" stroke-width="1.51"/><path d="M600,571L519,446L516,603Z" fill="#4abb3d" stroke="#4abb3d" stroke-width="1.51"/><path d="M761,626L643,473L600,571Z" fill="#3fb130" stroke="#3fb130" stroke-width="1.51"/><path d="M688,436L643,473L761,626Z" fill="#3dae2f" stroke="#3dae2f" stroke-width="1.51"/><path d="M599,1171L798,1307L698,1127Z" fill="#0f9215" stroke="#0f9215" stroke-width="1.51"/><path d="M452,1156L571,1242L599,1171Z" fill="#26a027" stroke="#26a027" stroke-width="1.51"/><path d="M449,1283L571,1242L452,1156Z" fill="#2ca126" stroke="#2ca126" stroke-width="1.51"/><path d="M643,473L519,446L600,571Z" fill="#47b73b" stroke="#47b73b" stroke-width="1.51"/><path d="M205,1108L347,1214L284,1046Z" fill="#41b332" stroke="#41b332" stroke-width="1.51"/><path d="M204,1008L205,1108L284,1046Z" fill="#45b539" stroke="#45b539" stroke-width="1.51"/><path d="M119,1059L205,1108L204,1008Z" fill="#4eba3b" stroke="#4eba3b" stroke-width="1.51"/><path d="M205,518L118,672L193,662Z" fill="#65d047" stroke="#65d047" stroke-width="1.51"/><path d="M519,446L341,479L516,603Z" fill="#54c440" stroke="#54c440" stroke-width="1.51"/><path d="M882,722L850,622L761,626Z" fill="#379227" stroke="#379227" stroke-width="1.51"/><path d="M118,672L104,813L255,736Z" fill="#66d144" stroke="#66d144" stroke-width="1.51"/><path d="M879,1117L879,1070L738,1027Z" fill="#1d7c1d" stroke="#1d7c1d" stroke-width="1.51"/><path d="M876,844L967,786L882,722Z" fill="#2d8322" stroke="#2d8322" stroke-width="1.51"/><path d="M879,1117L738,1027L698,1127Z" fill="#1b881c" stroke="#1b881c" stroke-width="1.51"/><path d="M193,662L118,672L255,736Z" fill="#62cf44" stroke="#62cf44" stroke-width="1.51"/><path d="M205,518L193,662L294,577Z" fill="#5eca45" stroke="#5eca45" stroke-width="1.51"/><path d="M519,446L505,409L341,479Z" fill="#58c642" stroke="#58c642" stroke-width="1.51"/><path d="M623,364L505,409L519,446Z" fill="#53bf41" stroke="#53bf41" stroke-width="1.51"/><path d="M347,1214L449,1283L452,1156Z" fill="#36a926" stroke="#36a926" stroke-width="1.51"/><path d="M220,1278L304,1286L347,1214Z" fill="#3ba52b" stroke="#3ba52b" stroke-width="1.51"/><path d="M121,871L119,1059L204,1008Z" fill="#58c242" stroke="#58c242" stroke-width="1.51"/><path d="M46,1115L119,1059L-92,1002Z" fill="#65ca48" stroke="#65ca48" stroke-width="1.51"/><path d="M643,473L623,364L519,446Z" fill="#4dba3c" stroke="#4dba3c" stroke-width="1.51"/><path d="M730,411L688,436L761,626Z" fill="#3ca72f" stroke="#3ca72f" stroke-width="1.51"/><path d="M295,361L205,518L341,479Z" fill="#61cc47" stroke="#61cc47" stroke-width="1.51"/><path d="M341,479L205,518L294,577Z" fill="#5dca45" stroke="#5dca45" stroke-width="1.51"/><path d="M835,1267L879,1117L698,1127Z" fill="#157d17" stroke="#157d17" stroke-width="1.51"/><path d="M1059,845L967,786L876,844Z" fill="#267a1e" stroke="#267a1e" stroke-width="1.51"/><path d="M961,1008L876,844L879,1070Z" fill="#1f7720" stroke="#1f7720" stroke-width="1.51"/><path d="M882,722L962,643L850,622Z" fill="#338724" stroke="#338724" stroke-width="1.51"/><path d="M879,1117L961,1008L879,1070Z" fill="#1a721b" stroke="#1a721b" stroke-width="1.51"/><path d="M347,1214L304,1286L449,1283Z" fill="#39a727" stroke="#39a727" stroke-width="1.51"/><path d="M220,1278L347,1214L205,1108Z" fill="#3cae2e" stroke="#3cae2e" stroke-width="1.51"/><path d="M688,436L623,364L643,473Z" fill="#48b537" stroke="#48b537" stroke-width="1.51"/><path d="M850,622L730,411L761,626Z" fill="#3a9c2c" stroke="#3a9c2c" stroke-width="1.51"/><path d="M922,525L730,411L850,622Z" fill="#388f2c" stroke="#388f2c" stroke-width="1.51"/><path d="M967,786L962,643L882,722Z" fill="#308421" stroke="#308421" stroke-width="1.51"/><path d="M730,411L623,364L688,436Z" fill="#48b534" stroke="#48b534" stroke-width="1.51"/><path d="M505,409L295,361L341,479Z" fill="#64d143" stroke="#64d143" stroke-width="1.51"/><path d="M46,1115L220,1278L205,1108Z" fill="#4bb735" stroke="#4bb735" stroke-width="1.51"/><path d="M962,643L922,525L850,622Z" fill="#338526" stroke="#338526" stroke-width="1.51"/><path d="M879,1117L988,1191L961,1008Z" fill="#136d16" stroke="#136d16" stroke-width="1.51"/><path d="M798,1307L835,1267L698,1127Z" fill="#127d14" stroke="#127d14" stroke-width="1.51"/><path d="M798,1307L599,1171L571,1242Z" fill="#17901a" stroke="#17901a" stroke-width="1.51"/><path d="M364,245L295,361L505,409Z" fill="#6cd646" stroke="#6cd646" stroke-width="1.51"/><path d="M119,1059L46,1115L205,1108Z" fill="#55bf3c" stroke="#55bf3c" stroke-width="1.51"/><path d="M-84,944L119,1059L121,871Z" fill="#69cf49" stroke="#69cf49" stroke-width="1.51"/><path d="M-84,944L121,871L104,813Z" fill="#6fd54a" stroke="#6fd54a" stroke-width="1.51"/><path d="M763,1392L571,1242L616,1464Z" fill="#197e1a" stroke="#197e1a" stroke-width="1.51"/><path d="M763,1392L798,1307L571,1242Z" fill="#128014" stroke="#128014" stroke-width="1.51"/><path d="M967,786L1156,795L962,643Z" fill="#297a1c" stroke="#297a1c" stroke-width="1.51"/><path d="M962,643L1014,516L922,525Z" fill="#2f8024" stroke="#2f8024" stroke-width="1.51"/><path d="M961,1008L1059,845L876,844Z" fill="#21761e" stroke="#21761e" stroke-width="1.51"/><path d="M1156,795L1059,845L1192,857Z" fill="#2a6320" stroke="#2a6320" stroke-width="1.51"/><path d="M304,1286L296,1375L449,1283Z" fill="#399e28" stroke="#399e28" stroke-width="1.51"/><path d="M220,1278L296,1375L304,1286Z" fill="#3a9d2c" stroke="#3a9d2c" stroke-width="1.51"/><path d="M202,1423L296,1375L220,1278Z" fill="#39962d" stroke="#39962d" stroke-width="1.51"/><path d="M835,1267L988,1191L879,1117Z" fill="#106c13" stroke="#106c13" stroke-width="1.51"/><path d="M969,1323L988,1191L835,1267Z" fill="#0d6110" stroke="#0d6110" stroke-width="1.51"/><path d="M295,361L184,358L205,518Z" fill="#66ce4a" stroke="#66ce4a" stroke-width="1.51"/><path d="M205,518L42,467L118,672Z" fill="#6fd64b" stroke="#6fd64b" stroke-width="1.51"/><path d="M210,194L184,358L295,361Z" fill="#72d74e" stroke="#72d74e" stroke-width="1.51"/><path d="M616,1464L571,1242L449,1283Z" fill="#248c24" stroke="#248c24" stroke-width="1.51"/><path d="M798,1307L969,1323L835,1267Z" fill="#126113" stroke="#126113" stroke-width="1.51"/><path d="M1130,589L1014,516L962,643Z" fill="#2d7921" stroke="#2d7921" stroke-width="1.51"/><path d="M922,525L878,313L730,411Z" fill="#3f922f" stroke="#3f922f" stroke-width="1.51"/><path d="M730,411L771,248L623,364Z" fill="#4eb634" stroke="#4eb634" stroke-width="1.51"/><path d="M-97,776L-84,944L104,813Z" fill="#75da5b" stroke="#75da5b" stroke-width="1.51"/><path d="M-97,776L104,813L118,672Z" fill="#78dd4d" stroke="#78dd4d" stroke-width="1.51"/><path d="M184,358L42,467L205,518Z" fill="#6fd44e" stroke="#6fd44e" stroke-width="1.51"/><path d="M-117,670L-97,776L118,672Z" fill="#7ee35e" stroke="#7ee35e" stroke-width="1.51"/><path d="M418,204L364,245L505,409Z" fill="#6ed647" stroke="#6ed647" stroke-width="1.51"/><path d="M418,204L505,409L557,167Z" fill="#6ad147" stroke="#6ad147" stroke-width="1.51"/><path d="M-84,944L-92,1002L119,1059Z" fill="#6acf55" stroke="#6acf55" stroke-width="1.51"/><path d="M119,1414L202,1423L220,1278Z" fill="#409830" stroke="#409830" stroke-width="1.51"/><path d="M-146,990L-92,1002L-84,944Z" fill="#70d469" stroke="#70d469" stroke-width="1.51"/><path d="M455,1474L616,1464L449,1283Z" fill="#288524" stroke="#288524" stroke-width="1.51"/><path d="M296,1375L455,1474L449,1283Z" fill="#349325" stroke="#349325" stroke-width="1.51"/><path d="M1059,845L1156,795L967,786Z" fill="#27711d" stroke="#27711d" stroke-width="1.51"/><path d="M1192,857L1059,845L1189,1018Z" fill="#255d20" stroke="#255d20" stroke-width="1.51"/><path d="M1055,368L878,313L922,525Z" fill="#3a862a" stroke="#3a862a" stroke-width="1.51"/><path d="M117,233L36,308L184,358Z" fill="#85e454" stroke="#85e454" stroke-width="1.51"/><path d="M557,167L505,409L623,364Z" fill="#5ec643" stroke="#5ec643" stroke-width="1.51"/><path d="M878,313L771,248L730,411Z" fill="#4ca433" stroke="#4ca433" stroke-width="1.51"/><path d="M-202,896L-146,990L-84,944Z" fill="#7bd571" stroke="#7bd571" stroke-width="1.51"/><path d="M42,467L-117,670L118,672Z" fill="#7ce057" stroke="#7ce057" stroke-width="1.51"/><path d="M296,1375L298,1520L455,1474Z" fill="#358a26" stroke="#358a26" stroke-width="1.51"/><path d="M40,1319L220,1278L46,1115Z" fill="#52b635" stroke="#52b635" stroke-width="1.51"/><path d="M1189,1018L1059,845L961,1008Z" fill="#1d651d" stroke="#1d651d" stroke-width="1.51"/><path d="M912,1470L969,1323L798,1307Z" fill="#115612" stroke="#115612" stroke-width="1.51"/><path d="M912,1470L798,1307L763,1392Z" fill="#135d13" stroke="#135d13" stroke-width="1.51"/><path d="M-101,1163L40,1319L46,1115Z" fill="#5fc347" stroke="#5fc347" stroke-width="1.51"/><path d="M1014,516L1055,368L922,525Z" fill="#2f7d25" stroke="#2f7d25" stroke-width="1.51"/><path d="M1156,795L1130,589L962,643Z" fill="#2f7220" stroke="#2f7220" stroke-width="1.51"/><path d="M-92,1002L-101,1163L46,1115Z" fill="#67cb57" stroke="#67cb57" stroke-width="1.51"/><path d="M-202,896L-84,944L-97,776Z" fill="#7cdb6f" stroke="#7cdb6f" stroke-width="1.51"/><path d="M1156,795L1318,722L1130,589Z" fill="#326223" stroke="#326223" stroke-width="1.51"/><path d="M1189,1018L961,1008L1177,1157Z" fill="#1b5a19" stroke="#1b5a19" stroke-width="1.51"/><path d="M771,248L557,167L623,364Z" fill="#5dc33c" stroke="#5dc33c" stroke-width="1.51"/><path d="M-146,990L-101,1163L-92,1002Z" fill="#6ed066" stroke="#6ed066" stroke-width="1.51"/><path d="M202,1423L298,1520L296,1375Z" fill="#368a2a" stroke="#368a2a" stroke-width="1.51"/><path d="M40,1319L119,1414L220,1278Z" fill="#4aa333" stroke="#4aa333" stroke-width="1.51"/><path d="M-37,1374L119,1414L40,1319Z" fill="#56a739" stroke="#56a739" stroke-width="1.51"/><path d="M1177,1157L961,1008L988,1191Z" fill="#0e6212" stroke="#0e6212" stroke-width="1.51"/><path d="M1130,589L1110,483L1014,516Z" fill="#2f7025" stroke="#2f7025" stroke-width="1.51"/><path d="M1190,387L1110,483L1322,511Z" fill="#356129" stroke="#356129" stroke-width="1.51"/><path d="M120,1559L298,1520L202,1423Z" fill="#37872b" stroke="#37872b" stroke-width="1.51"/><path d="M505,1646L663,1537L616,1464Z" fill="#19711a" stroke="#19711a" stroke-width="1.51"/><path d="M616,1464L663,1537L763,1392Z" fill="#146f16" stroke="#146f16" stroke-width="1.51"/><path d="M454,1588L616,1464L455,1474Z" fill="#247b22" stroke="#247b22" stroke-width="1.51"/><path d="M878,313L874,230L771,248Z" fill="#509e34" stroke="#509e34" stroke-width="1.51"/><path d="M771,248L640,78L557,167Z" fill="#62c747" stroke="#62c747" stroke-width="1.51"/><path d="M1019,219L874,230L878,313Z" fill="#4c9530" stroke="#4c9530" stroke-width="1.51"/><path d="M-146,990L-178,1168L-101,1163Z" fill="#72cb68" stroke="#72cb68" stroke-width="1.51"/><path d="M-217,715L-202,896L-97,776Z" fill="#8bde78" stroke="#8bde78" stroke-width="1.51"/><path d="M42,467L-115,482L-117,670Z" fill="#80e269" stroke="#80e269" stroke-width="1.51"/><path d="M184,358L36,308L42,467Z" fill="#80e153" stroke="#80e153" stroke-width="1.51"/><path d="M210,194L295,361L364,245Z" fill="#77db4d" stroke="#77db4d" stroke-width="1.51"/><path d="M213,130L210,194L364,245Z" fill="#7cdf56" stroke="#7cdf56" stroke-width="1.51"/><path d="M213,130L364,245L342,49Z" fill="#7de15b" stroke="#7de15b" stroke-width="1.51"/><path d="M1110,483L1055,368L1014,516Z" fill="#317525" stroke="#317525" stroke-width="1.51"/><path d="M-45,366L-115,482L42,467Z" fill="#83e468" stroke="#83e468" stroke-width="1.51"/><path d="M-117,670L-217,715L-97,776Z" fill="#8ae574" stroke="#8ae574" stroke-width="1.51"/><path d="M-101,1163L-23,1340L40,1319Z" fill="#5db949" stroke="#5db949" stroke-width="1.51"/><path d="M119,1414L120,1559L202,1423Z" fill="#42902f" stroke="#42902f" stroke-width="1.51"/><path d="M210,194L117,233L184,358Z" fill="#80e053" stroke="#80e053" stroke-width="1.51"/><path d="M1190,1277L1177,1157L988,1191Z" fill="#135111" stroke="#135111" stroke-width="1.51"/><path d="M1286,1156L1235,976L1189,1018Z" fill="#204f1c" stroke="#204f1c" stroke-width="1.51"/><path d="M1189,1018L1235,976L1192,857Z" fill="#255420" stroke="#255420" stroke-width="1.51"/><path d="M1192,857L1255,838L1156,795Z" fill="#2c5b22" stroke="#2c5b22" stroke-width="1.51"/><path d="M36,308L-45,366L42,467Z" fill="#88e75f" stroke="#88e75f" stroke-width="1.51"/><path d="M-218,365L-45,366L-201,223Z" fill="#9fef83" stroke="#9fef83" stroke-width="1.51"/><path d="M969,1323L1046,1380L988,1191Z" fill="#06560c" stroke="#06560c" stroke-width="1.51"/><path d="M870,1559L912,1470L763,1392Z" fill="#104f11" stroke="#104f11" stroke-width="1.51"/><path d="M-236,662L-217,715L-117,670Z" fill="#94e17e" stroke="#94e17e" stroke-width="1.51"/><path d="M1235,976L1255,838L1192,857Z" fill="#285721" stroke="#285721" stroke-width="1.51"/><path d="M298,1520L454,1588L455,1474Z" fill="#2f8321" stroke="#2f8321" stroke-width="1.51"/><path d="M912,1470L1046,1380L969,1323Z" fill="#0a4b0d" stroke="#0a4b0d" stroke-width="1.51"/><path d="M-183,1410L-37,1374L-23,1340Z" fill="#5bac51" stroke="#5bac51" stroke-width="1.51"/><path d="M-23,1340L-37,1374L40,1319Z" fill="#59ad43" stroke="#59ad43" stroke-width="1.51"/><path d="M305,1745L505,1646L454,1588Z" fill="#277a1c" stroke="#277a1c" stroke-width="1.51"/><path d="M-240,1337L-23,1340L-101,1163Z" fill="#65ba5c" stroke="#65ba5c" stroke-width="1.51"/><path d="M-202,896L-178,1168L-146,990Z" fill="#7dce74" stroke="#7dce74" stroke-width="1.51"/><path d="M-217,715L-236,662L-202,896Z" fill="#97de82" stroke="#97de82" stroke-width="1.51"/><path d="M-240,1337L-101,1163L-178,1168Z" fill="#73c167" stroke="#73c167" stroke-width="1.51"/><path d="M-115,482L-236,662L-117,670Z" fill="#8ee37a" stroke="#8ee37a" stroke-width="1.51"/><path d="M-249,479L-236,662L-115,482Z" fill="#97df84" stroke="#97df84" stroke-width="1.51"/><path d="M663,1537L756,1580L763,1392Z" fill="#0f6612" stroke="#0f6612" stroke-width="1.51"/><path d="M1155,1608L1173,1415L1046,1380Z" fill="#0f300c" stroke="#0f300c" stroke-width="1.51"/><path d="M706,1697L756,1580L663,1537Z" fill="#07640e" stroke="#07640e" stroke-width="1.51"/><path d="M-218,365L-115,482L-45,366Z" fill="#8fe97a" stroke="#8fe97a" stroke-width="1.51"/><path d="M210,194L213,130L117,233Z" fill="#82e35a" stroke="#82e35a" stroke-width="1.51"/><path d="M342,49L364,245L418,204Z" fill="#7ce154" stroke="#7ce154" stroke-width="1.51"/><path d="M793,90L640,78L771,248Z" fill="#5dbb46" stroke="#5dbb46" stroke-width="1.51"/><path d="M557,167L487,60L418,204Z" fill="#72d756" stroke="#72d756" stroke-width="1.51"/><path d="M640,78L487,60L557,167Z" fill="#6cd059" stroke="#6cd059" stroke-width="1.51"/><path d="M756,1580L870,1559L763,1392Z" fill="#105711" stroke="#105711" stroke-width="1.51"/><path d="M454,1588L505,1646L616,1464Z" fill="#1f761f" stroke="#1f761f" stroke-width="1.51"/><path d="M756,1580L871,1657L870,1559Z" fill="#0b4b0d" stroke="#0b4b0d" stroke-width="1.51"/><path d="M248,1676L454,1588L298,1520Z" fill="#2f8122" stroke="#2f8122" stroke-width="1.51"/><path d="M1173,1415L1190,1277L1046,1380Z" fill="#123b10" stroke="#123b10" stroke-width="1.51"/><path d="M1046,1380L1190,1277L988,1191Z" fill="#0d4e0e" stroke="#0d4e0e" stroke-width="1.51"/><path d="M1177,1157L1286,1156L1189,1018Z" fill="#1d4c18" stroke="#1d4c18" stroke-width="1.51"/><path d="M874,230L793,90L771,248Z" fill="#57a83c" stroke="#57a83c" stroke-width="1.51"/><path d="M1055,368L1019,219L878,313Z" fill="#438b2b" stroke="#438b2b" stroke-width="1.51"/><path d="M1198,173L1019,219L1055,368Z" fill="#48802d" stroke="#48802d" stroke-width="1.51"/><path d="M1190,387L1055,368L1110,483Z" fill="#386f29" stroke="#386f29" stroke-width="1.51"/><path d="M612,-74L474,-16L487,60Z" fill="#73d76a" stroke="#73d76a" stroke-width="1.51"/><path d="M917,82L793,90L874,230Z" fill="#569e42" stroke="#569e42" stroke-width="1.51"/><path d="M-31,1577L120,1559L119,1414Z" fill="#4d9631" stroke="#4d9631" stroke-width="1.51"/><path d="M1255,838L1318,722L1156,795Z" fill="#2e5e22" stroke="#2e5e22" stroke-width="1.51"/><path d="M1235,976L1318,722L1255,838Z" fill="#2b5b22" stroke="#2b5b22" stroke-width="1.51"/><path d="M1286,1156L1318,722L1235,976Z" fill="#245420" stroke="#245420" stroke-width="1.51"/><path d="M487,60L342,49L418,204Z" fill="#7adf5c" stroke="#7adf5c" stroke-width="1.51"/><path d="M1322,511L1110,483L1130,589Z" fill="#336027" stroke="#336027" stroke-width="1.51"/><path d="M1190,1277L1286,1156L1177,1157Z" fill="#194814" stroke="#194814" stroke-width="1.51"/><path d="M1318,722L1331,677L1130,589Z" fill="#336124" stroke="#336124" stroke-width="1.51"/><path d="M1286,1156L1331,677L1318,722Z" fill="#2a5a21" stroke="#2a5a21" stroke-width="1.51"/><path d="M120,1559L171,1618L298,1520Z" fill="#358329" stroke="#358329" stroke-width="1.51"/><path d="M505,1646L604,1687L663,1537Z" fill="#156d18" stroke="#156d18" stroke-width="1.51"/><path d="M469,1818L604,1687L505,1646Z" fill="#1c6b1c" stroke="#1c6b1c" stroke-width="1.51"/><path d="M-218,365L-249,479L-115,482Z" fill="#99e285" stroke="#99e285" stroke-width="1.51"/><path d="M-114,168L36,308L117,233Z" fill="#98f364" stroke="#98f364" stroke-width="1.51"/><path d="M213,130L101,88L117,233Z" fill="#8ae862" stroke="#8ae862" stroke-width="1.51"/><path d="M116,-57L101,88L213,130Z" fill="#8deb70" stroke="#8deb70" stroke-width="1.51"/><path d="M342,49L257,-97L213,130Z" fill="#81e46d" stroke="#81e46d" stroke-width="1.51"/><path d="M487,60L364,-12L342,49Z" fill="#7ee367" stroke="#7ee367" stroke-width="1.51"/><path d="M612,-74L487,60L640,78Z" fill="#6dd162" stroke="#6dd162" stroke-width="1.51"/><path d="M1019,55L917,82L1019,219Z" fill="#4e933d" stroke="#4e933d" stroke-width="1.51"/><path d="M1019,219L917,82L874,230Z" fill="#4f9638" stroke="#4f9638" stroke-width="1.51"/><path d="M704,-95L612,-74L640,78Z" fill="#6bcb63" stroke="#6bcb63" stroke-width="1.51"/><path d="M171,1618L248,1676L298,1520Z" fill="#2f7f26" stroke="#2f7f26" stroke-width="1.51"/><path d="M986,1620L1046,1380L912,1470Z" fill="#07410b" stroke="#07410b" stroke-width="1.51"/><path d="M1190,1277L1271,1345L1286,1156Z" fill="#174013" stroke="#174013" stroke-width="1.51"/><path d="M986,1620L912,1470L870,1559Z" fill="#08430b" stroke="#08430b" stroke-width="1.51"/><path d="M604,1687L706,1697L663,1537Z" fill="#0c6611" stroke="#0c6611" stroke-width="1.51"/><path d="M559,1850L706,1697L604,1687Z" fill="#146015" stroke="#146015" stroke-width="1.51"/><path d="M474,-16L364,-12L487,60Z" fill="#7adf69" stroke="#7adf69" stroke-width="1.51"/><path d="M-114,168L-45,366L36,308Z" fill="#96f16e" stroke="#96f16e" stroke-width="1.51"/><path d="M1331,677L1322,511L1130,589Z" fill="#336126" stroke="#336126" stroke-width="1.51"/><path d="M1129,104L1019,55L1019,219Z" fill="#4c893b" stroke="#4c893b" stroke-width="1.51"/><path d="M706,1697L871,1657L756,1580Z" fill="#07530c" stroke="#07530c" stroke-width="1.51"/><path d="M-37,1374L-31,1577L119,1414Z" fill="#549c3c" stroke="#549c3c" stroke-width="1.51"/><path d="M120,1559L73,1649L171,1618Z" fill="#40892b" stroke="#40892b" stroke-width="1.51"/><path d="M171,1618L73,1649L248,1676Z" fill="#378227" stroke="#378227" stroke-width="1.51"/><path d="M-240,1337L-183,1410L-23,1340Z" fill="#66ac5e" stroke="#66ac5e" stroke-width="1.51"/><path d="M-240,1337L-178,1168L-202,896Z" fill="#7fc772" stroke="#7fc772" stroke-width="1.51"/><path d="M-240,1337L-202,896L-236,662Z" fill="#8acf80" stroke="#8acf80" stroke-width="1.51"/><path d="M-249,479L-240,1337L-236,662Z" fill="#97d885" stroke="#97d885" stroke-width="1.51"/><path d="M871,1657L986,1620L870,1559Z" fill="#06400a" stroke="#06400a" stroke-width="1.51"/><path d="M1286,1156L1317,1415L1331,677Z" fill="#1e4d1a" stroke="#1e4d1a" stroke-width="1.51"/><path d="M1173,1415L1271,1345L1190,1277Z" fill="#153511" stroke="#153511" stroke-width="1.51"/><path d="M1317,1415L1271,1345L1173,1415Z" fill="#133010" stroke="#133010" stroke-width="1.51"/><path d="M-183,1410L-31,1577L-37,1374Z" fill="#58a150" stroke="#58a150" stroke-width="1.51"/><path d="M-31,1577L73,1649L120,1559Z" fill="#4c922f" stroke="#4c922f" stroke-width="1.51"/><path d="M244,1790L305,1745L248,1676Z" fill="#2e7523" stroke="#2e7523" stroke-width="1.51"/><path d="M248,1676L305,1745L454,1588Z" fill="#2b7d1e" stroke="#2b7d1e" stroke-width="1.51"/><path d="M-28,72L117,233L101,88Z" fill="#99f369" stroke="#99f369" stroke-width="1.51"/><path d="M-28,72L-114,168L117,233Z" fill="#9cf673" stroke="#9cf673" stroke-width="1.51"/><path d="M704,-95L640,78L793,90Z" fill="#62c457" stroke="#62c457" stroke-width="1.51"/><path d="M341,-138L257,-97L364,-12Z" fill="#8de379" stroke="#8de379" stroke-width="1.51"/><path d="M917,82L886,-24L793,90Z" fill="#58a14d" stroke="#58a14d" stroke-width="1.51"/><path d="M1198,173L1055,368L1190,387Z" fill="#43712d" stroke="#43712d" stroke-width="1.51"/><path d="M116,-57L-28,72L101,88Z" fill="#9cf676" stroke="#9cf676" stroke-width="1.51"/><path d="M257,-97L342,49L364,-12Z" fill="#83e571" stroke="#83e571" stroke-width="1.51"/><path d="M-114,168L-201,223L-45,366Z" fill="#9ff57f" stroke="#9ff57f" stroke-width="1.51"/><path d="M-218,365L-211,140L-249,479Z" fill="#ace990" stroke="#ace990" stroke-width="1.51"/><path d="M-211,140L-201,223L-114,168Z" fill="#aef692" stroke="#aef692" stroke-width="1.51"/><path d="M1019,55L886,-24L917,82Z" fill="#53994a" stroke="#53994a" stroke-width="1.51"/><path d="M1322,511L1317,343L1190,387Z" fill="#39642a" stroke="#39642a" stroke-width="1.51"/><path d="M1331,677L1317,343L1322,511Z" fill="#336028" stroke="#336028" stroke-width="1.51"/><path d="M886,-24L704,-95L793,90Z" fill="#5eb257" stroke="#5eb257" stroke-width="1.51"/><path d="M341,-138L364,-12L474,-16Z" fill="#88e373" stroke="#88e373" stroke-width="1.51"/><path d="M1317,343L1198,173L1190,387Z" fill="#446c2e" stroke="#446c2e" stroke-width="1.51"/><path d="M1198,173L1129,104L1019,219Z" fill="#4c7f37" stroke="#4c7f37" stroke-width="1.51"/><path d="M915,-181L766,-134L886,-24Z" fill="#68a061" stroke="#68a061" stroke-width="1.51"/><path d="M305,1745L469,1818L505,1646Z" fill="#28721d" stroke="#28721d" stroke-width="1.51"/><path d="M864,1840L1042,1687L871,1657Z" fill="#073707" stroke="#073707" stroke-width="1.51"/><path d="M871,1657L1042,1687L986,1620Z" fill="#023905" stroke="#023905" stroke-width="1.51"/><path d="M377,1838L469,1818L305,1745Z" fill="#2f6f20" stroke="#2f6f20" stroke-width="1.51"/><path d="M507,-134L474,-16L612,-74Z" fill="#7cd472" stroke="#7cd472" stroke-width="1.51"/><path d="M73,1649L244,1790L248,1676Z" fill="#327b26" stroke="#327b26" stroke-width="1.51"/><path d="M83,1888L244,1790L73,1649Z" fill="#3e7a2a" stroke="#3e7a2a" stroke-width="1.51"/><path d="M659,-167L507,-134L612,-74Z" fill="#7ecd74" stroke="#7ecd74" stroke-width="1.51"/><path d="M1260,1528L1317,1415L1173,1415Z" fill="#12290e" stroke="#12290e" stroke-width="1.51"/><path d="M1271,1345L1317,1415L1286,1156Z" fill="#163a12" stroke="#163a12" stroke-width="1.51"/><path d="M257,-97L116,-57L213,130Z" fill="#86e674" stroke="#86e674" stroke-width="1.51"/><path d="M-28,72L-211,140L-114,168Z" fill="#a3fa8e" stroke="#a3fa8e" stroke-width="1.51"/><path d="M986,1620L1155,1608L1046,1380Z" fill="#083608" stroke="#083608" stroke-width="1.51"/><path d="M864,1840L871,1657L706,1697Z" fill="#0a460c" stroke="#0a460c" stroke-width="1.51"/><path d="M1042,1687L1155,1608L986,1620Z" fill="#053003" stroke="#053003" stroke-width="1.51"/><path d="M1198,173L1284,49L1129,104Z" fill="#4e743f" stroke="#4e743f" stroke-width="1.51"/><path d="M1317,343L1245,170L1198,173Z" fill="#4b7131" stroke="#4b7131" stroke-width="1.51"/><path d="M244,1790L377,1838L305,1745Z" fill="#2f7022" stroke="#2f7022" stroke-width="1.51"/><path d="M507,-134L341,-138L474,-16Z" fill="#88dd77" stroke="#88dd77" stroke-width="1.51"/><path d="M257,-97L202,-203L116,-57Z" fill="#97e383" stroke="#97e383" stroke-width="1.51"/><path d="M464,2006L559,1850L469,1818Z" fill="#275b20" stroke="#275b20" stroke-width="1.51"/><path d="M469,1818L559,1850L604,1687Z" fill="#1e621d" stroke="#1e621d" stroke-width="1.51"/><path d="M244,1790L363,1919L377,1838Z" fill="#316923" stroke="#316923" stroke-width="1.51"/><path d="M-31,1577L-38,1689L73,1649Z" fill="#4d9138" stroke="#4d9138" stroke-width="1.51"/><path d="M-147,1698L-38,1689L-31,1577Z" fill="#4f9346" stroke="#4f9346" stroke-width="1.51"/><path d="M-245,1565L-31,1577L-183,1410Z" fill="#609b5a" stroke="#609b5a" stroke-width="1.51"/><path d="M1155,1608L1260,1528L1173,1415Z" fill="#10260b" stroke="#10260b" stroke-width="1.51"/><path d="M-201,223L-211,140L-218,365Z" fill="#b2f290" stroke="#b2f290" stroke-width="1.51"/><path d="M-193,-31L-211,140L-28,72Z" fill="#abfb9b" stroke="#abfb9b" stroke-width="1.51"/><path d="M704,-95L659,-167L612,-74Z" fill="#78c86c" stroke="#78c86c" stroke-width="1.51"/><path d="M507,-134L202,-203L341,-138Z" fill="#98e182" stroke="#98e182" stroke-width="1.51"/><path d="M886,-24L766,-134L704,-95Z" fill="#6ab161" stroke="#6ab161" stroke-width="1.51"/><path d="M1066,-20L886,-24L1019,55Z" fill="#50954b" stroke="#50954b" stroke-width="1.51"/><path d="M1066,-20L1019,55L1112,-9Z" fill="#4f8b49" stroke="#4f8b49" stroke-width="1.51"/><path d="M766,-134L659,-167L704,-95Z" fill="#77c16a" stroke="#77c16a" stroke-width="1.51"/><path d="M1112,-9L1019,55L1129,104Z" fill="#4e8645" stroke="#4e8645" stroke-width="1.51"/><path d="M1155,1608L1279,1739L1260,1528Z" fill="#0d2005" stroke="#0d2005" stroke-width="1.51"/><path d="M1042,1687L1091,1710L1155,1608Z" fill="#082a03" stroke="#082a03" stroke-width="1.51"/><path d="M1057,1884L1091,1710L1042,1687Z" fill="#092602" stroke="#092602" stroke-width="1.51"/><path d="M-240,1337L-245,1565L-183,1410Z" fill="#719e69" stroke="#719e69" stroke-width="1.51"/><path d="M-249,479L-245,1565L-240,1337Z" fill="#86c579" stroke="#86c579" stroke-width="1.51"/><path d="M1284,49L1112,-9L1129,104Z" fill="#4f7746" stroke="#4f7746" stroke-width="1.51"/><path d="M1043,-164L915,-181L886,-24Z" fill="#63965c" stroke="#63965c" stroke-width="1.51"/><path d="M116,-57L-59,-32L-28,72Z" fill="#a0fa85" stroke="#a0fa85" stroke-width="1.51"/><path d="M52,-185L-59,-32L116,-57Z" fill="#aaf68b" stroke="#aaf68b" stroke-width="1.51"/><path d="M791,1884L864,1840L706,1697Z" fill="#10430f" stroke="#10430f" stroke-width="1.51"/><path d="M864,1840L1057,1884L1042,1687Z" fill="#082b04" stroke="#082b04" stroke-width="1.51"/><path d="M559,1850L791,1884L706,1697Z" fill="#135512" stroke="#135512" stroke-width="1.51"/><path d="M613,1958L791,1884L559,1850Z" fill="#1b4e17" stroke="#1b4e17" stroke-width="1.51"/><path d="M-38,1689L83,1888L73,1649Z" fill="#4a8630" stroke="#4a8630" stroke-width="1.51"/><path d="M-245,1565L-147,1698L-31,1577Z" fill="#599553" stroke="#599553" stroke-width="1.51"/><path d="M377,1838L363,1919L469,1818Z" fill="#2f6721" stroke="#2f6721" stroke-width="1.51"/><path d="M218,1995L363,1919L244,1790Z" fill="#326326" stroke="#326326" stroke-width="1.51"/><path d="M659,-167L202,-203L507,-134Z" fill="#91d980" stroke="#91d980" stroke-width="1.51"/><path d="M341,-138L202,-203L257,-97Z" fill="#96e083" stroke="#96e083" stroke-width="1.51"/><path d="M659,-167L915,-181L202,-203Z" fill="#86cb7b" stroke="#86cb7b" stroke-width="1.51"/><path d="M766,-134L915,-181L659,-167Z" fill="#75b06a" stroke="#75b06a" stroke-width="1.51"/><path d="M1043,-164L886,-24L1066,-20Z" fill="#599353" stroke="#599353" stroke-width="1.51"/><path d="M1160,-172L1043,-164L1066,-20Z" fill="#5e8458" stroke="#5e8458" stroke-width="1.51"/><path d="M1245,170L1284,49L1198,173Z" fill="#4d743d" stroke="#4d743d" stroke-width="1.51"/><path d="M1317,343L1284,49L1245,170Z" fill="#4c7236" stroke="#4c7236" stroke-width="1.51"/><path d="M464,2006L613,1958L559,1850Z" fill="#245320" stroke="#245320" stroke-width="1.51"/><path d="M693,2008L866,1915L791,1884Z" fill="#153811" stroke="#153811" stroke-width="1.51"/><path d="M791,1884L866,1915L864,1840Z" fill="#12320f" stroke="#12320f" stroke-width="1.51"/><path d="M-51,1840L83,1888L-38,1689Z" fill="#4c8139" stroke="#4c8139" stroke-width="1.51"/><path d="M363,1919L464,2006L469,1818Z" fill="#2d5f22" stroke="#2d5f22" stroke-width="1.51"/><path d="M-178,-136L-193,-31L-59,-32Z" fill="#b4fbab" stroke="#b4fbab" stroke-width="1.51"/><path d="M-59,-32L-193,-31L-28,72Z" fill="#a4fe99" stroke="#a4fe99" stroke-width="1.51"/><path d="M-211,140L-193,-31L-249,479Z" fill="#b6f397" stroke="#b6f397" stroke-width="1.51"/><path d="M202,-203L52,-185L116,-57Z" fill="#a6ea8b" stroke="#a6ea8b" stroke-width="1.51"/><path d="M-147,1698L-51,1840L-38,1689Z" fill="#4f8b47" stroke="#4f8b47" stroke-width="1.51"/><path d="M-184,1787L-51,1840L-147,1698Z" fill="#54884f" stroke="#54884f" stroke-width="1.51"/><path d="M1160,-172L1066,-20L1112,-9Z" fill="#578152" stroke="#578152" stroke-width="1.51"/><path d="M322,2064L464,2006L363,1919Z" fill="#326123" stroke="#326123" stroke-width="1.51"/><path d="M613,1958L693,2008L791,1884Z" fill="#194814" stroke="#194814" stroke-width="1.51"/><path d="M-245,1565L-184,1787L-147,1698Z" fill="#608e5a" stroke="#608e5a" stroke-width="1.51"/><path d="M1091,1710L1279,1739L1155,1608Z" fill="#0a1f01" stroke="#0a1f01" stroke-width="1.51"/><path d="M866,1915L1057,1884L864,1840Z" fill="#0e2909" stroke="#0e2909" stroke-width="1.51"/><path d="M995,1985L1057,1884L866,1915Z" fill="#0d2106" stroke="#0d2106" stroke-width="1.51"/><path d="M515,2068L693,2008L613,1958Z" fill="#1f4f1b" stroke="#1f4f1b" stroke-width="1.51"/><path d="M1248,1839L1279,1739L1091,1710Z" fill="#061701" stroke="#061701" stroke-width="1.51"/><path d="M1260,1528L1279,1739L1317,1415Z" fill="#0f2309" stroke="#0f2309" stroke-width="1.51"/><path d="M1284,49L1295,-37L1112,-9Z" fill="#50774c" stroke="#50774c" stroke-width="1.51"/><path d="M1317,343L1295,-37L1284,49Z" fill="#4e743e" stroke="#4e743e" stroke-width="1.51"/><path d="M-50,1940L83,1888L-51,1840Z" fill="#4d783b" stroke="#4d783b" stroke-width="1.51"/><path d="M41,1985L218,1995L83,1888Z" fill="#426b2e" stroke="#426b2e" stroke-width="1.51"/><path d="M83,1888L218,1995L244,1790Z" fill="#38672a" stroke="#38672a" stroke-width="1.51"/><path d="M-31,-225L-178,-136L-59,-32Z" fill="#b4faa9" stroke="#b4faa9" stroke-width="1.51"/><path d="M52,-185L-31,-225L-59,-32Z" fill="#b4f69c" stroke="#b4f69c" stroke-width="1.51"/><path d="M202,-203L-31,-225L52,-185Z" fill="#b5ee94" stroke="#b5ee94" stroke-width="1.51"/><path d="M915,-181L-31,-225L202,-203Z" fill="#9ddf86" stroke="#9ddf86" stroke-width="1.51"/><path d="M1295,-37L1160,-172L1112,-9Z" fill="#577553" stroke="#577553" stroke-width="1.51"/><path d="M1043,-164L1160,-172L915,-181Z" fill="#648b5e" stroke="#648b5e" stroke-width="1.51"/><path d="M915,-181L1262,-179L-31,-225Z" fill="#7fbe72" stroke="#7fbe72" stroke-width="1.51"/><path d="M1057,1884L1141,1882L1091,1710Z" fill="#091c02" stroke="#091c02" stroke-width="1.51"/><path d="M1188,1977L1141,1882L1057,1884Z" fill="#041000" stroke="#041000" stroke-width="1.51"/><path d="M464,2006L515,2068L613,1958Z" fill="#255420" stroke="#255420" stroke-width="1.51"/><path d="M900,2111L995,1985L866,1915Z" fill="#0f250a" stroke="#0f250a" stroke-width="1.51"/><path d="M322,2064L515,2068L464,2006Z" fill="#2e5d22" stroke="#2e5d22" stroke-width="1.51"/><path d="M218,1995L322,2064L363,1919Z" fill="#336126" stroke="#336126" stroke-width="1.51"/><path d="M-184,1787L-50,1940L-51,1840Z" fill="#507f4a" stroke="#507f4a" stroke-width="1.51"/><path d="M-50,1940L41,1985L83,1888Z" fill="#4c7236" stroke="#4c7236" stroke-width="1.51"/><path d="M151,2111L322,2064L218,1995Z" fill="#336028" stroke="#336028" stroke-width="1.51"/><path d="M1141,1882L1248,1839L1091,1710Z" fill="#061601" stroke="#061601" stroke-width="1.51"/><path d="M783,2093L866,1915L693,2008Z" fill="#163912" stroke="#163912" stroke-width="1.51"/><path d="M1141,1882L1188,1977L1248,1839Z" fill="#010500" stroke="#010500" stroke-width="1.51"/><path d="M1295,-37L1262,-179L1160,-172Z" fill="#5d7359" stroke="#5d7359" stroke-width="1.51"/><path d="M1160,-172L1262,-179L915,-181Z" fill="#637e5e" stroke="#637e5e" stroke-width="1.51"/><path d="M646,2147L693,2008L515,2068Z" fill="#1f4e1a" stroke="#1f4e1a" stroke-width="1.51"/><path d="M646,2147L783,2093L693,2008Z" fill="#194614" stroke="#194614" stroke-width="1.51"/><path d="M900,2111L1016,2046L995,1985Z" fill="#0d2106" stroke="#0d2106" stroke-width="1.51"/><path d="M995,1985L1188,1977L1057,1884Z" fill="#061601" stroke="#061601" stroke-width="1.51"/><path d="M783,2093L900,2111L866,1915Z" fill="#122c0f" stroke="#122c0f" stroke-width="1.51"/><path d="M322,2064L646,2147L515,2068Z" fill="#285721" stroke="#285721" stroke-width="1.51"/><path d="M95,2102L151,2111L218,1995Z" fill="#3c662c" stroke="#3c662c" stroke-width="1.51"/><path d="M322,2064L151,2111L646,2147Z" fill="#326223" stroke="#326223" stroke-width="1.51"/><path d="M95,2102L218,1995L41,1985Z" fill="#426b2d" stroke="#426b2d" stroke-width="1.51"/><path d="M1016,2046L1188,1977L995,1985Z" fill="#071801" stroke="#071801" stroke-width="1.51"/><path d="M1227,2137L1297,2018L1188,1977Z" fill="#000000" stroke="#000000" stroke-width="1.51"/><path d="M646,2147L900,2111L783,2093Z" fill="#163912" stroke="#163912" stroke-width="1.51"/><path d="M-117,2115L95,2102L41,1985Z" fill="#4d7339" stroke="#4d7339" stroke-width="1.51"/><path d="M-50,1940L-117,2115L41,1985Z" fill="#4e7442" stroke="#4e7442" stroke-width="1.51"/><path d="M-184,1787L-256,1983L-50,1940Z" fill="#5a7755" stroke="#5a7755" stroke-width="1.51"/><path d="M-245,1565L-256,1983L-184,1787Z" fill="#658260" stroke="#658260" stroke-width="1.51"/><path d="M-249,479L-256,1983L-245,1565Z" fill="#7bab71" stroke="#7bab71" stroke-width="1.51"/><path d="M1188,1977L1297,2018L1248,1839Z" fill="#000000" stroke="#000000" stroke-width="1.51"/><path d="M1248,1839L1297,2018L1279,1739Z" fill="#020b00" stroke="#020b00" stroke-width="1.51"/><path d="M1279,1739L1297,2018L1317,1415Z" fill="#081a01" stroke="#081a01" stroke-width="1.51"/><path d="M1176,2155L1188,1977L1016,2046Z" fill="#030e00" stroke="#030e00" stroke-width="1.51"/><path d="M-256,1983L-117,2115L-50,1940Z" fill="#567552" stroke="#567552" stroke-width="1.51"/><path d="M95,2102L-117,2115L151,2111Z" fill="#4b7133" stroke="#4b7133" stroke-width="1.51"/><path d="M151,2111L-117,2115L646,2147Z" fill="#336028" stroke="#336028" stroke-width="1.51"/><path d="M-256,1983L-241,2077L-117,2115Z" fill="#60725c" stroke="#60725c" stroke-width="1.51"/><path d="M646,2147L1176,2155L900,2111Z" fill="#10260c" stroke="#10260c" stroke-width="1.51"/><path d="M900,2111L1176,2155L1016,2046Z" fill="#091d01" stroke="#091d01" stroke-width="1.51"/><path d="M1176,2155L1227,2137L1188,1977Z" fill="#000000" stroke="#000000" stroke-width="1.51"/></svg>