<?xml version="1.0" encoding="iso-8859-1"?>
<!-- Generator: Adobe Illustrator 19.0.0, SVG Export Plug-In . SVG Version: 6.00 Build 0)  -->
<svg version="1.1" id="Capa_1" xmlns="http://www.w3.org/2000/svg" xmlns:xlink="http://www.w3.org/1999/xlink" x="0px" y="0px"
	 viewBox="0 0 512 512" style="enable-background:new 0 0 512 512;" xml:space="preserve">
<path style="fill:#50B9FF;" d="M167,122H45c-24.814,0-45,20.186-45,45v240c0,24.814,20.186,45,45,45h122c8.291,0,15-6.709,15-15V137
	C182,128.709,175.291,122,167,122z"/>
<g>
	<rect y="182" style="fill:#5C5F66;" width="182" height="90"/>
	<path style="fill:#5C5F66;" d="M197,482L197,482c-24.814,0-45-20.186-45-45V137c0-24.814,20.186-45,45-45l0,0
		c8.291,0,15,6.709,15,15v360C212,475.291,205.291,482,197,482z"/>
</g>
<path style="fill:#7F838C;" d="M467,62H227c-24.814,0-45,20.186-45,45v360c0,24.814,20.186,45,45,45h240c24.814,0,45-20.186,45-45
	V107C512,82.186,491.814,62,467,62z"/>
<path style="fill:#757982;" d="M467,62H347v450h120c24.814,0,45-20.186,45-45V107C512,82.186,491.814,62,467,62z"/>
<path style="fill:#FFDBB3;" d="M407,152H287c-8.291,0-15-6.709-15-15V15c0-8.291,6.709-15,15-15h120c8.291,0,15,6.709,15,15v122
	C422,145.291,415.291,152,407,152z"/>
<path style="fill:#FFCF99;" d="M407,0h-60v152h60c8.291,0,15-6.709,15-15V15C422,6.709,415.291,0,407,0z"/>
<path style="fill:#DAE2F2;" d="M407,332h-30c-8.291,0-15-6.709-15-15s6.709-15,15-15h30c8.291,0,15,6.709,15,15S415.291,332,407,332
	z"/>
<path style="fill:#E6EEFF;" d="M317,332h-30c-8.291,0-15-6.709-15-15s6.709-15,15-15h30c8.291,0,15,6.709,15,15S325.291,332,317,332
	z"/>
<g>
	<path style="fill:#DAE2F2;" d="M407,392h-30c-8.291,0-15-6.709-15-15s6.709-15,15-15h30c8.291,0,15,6.709,15,15
		S415.291,392,407,392z"/>
	<path style="fill:#DAE2F2;" d="M407,452h-30c-8.291,0-15-6.709-15-15s6.709-15,15-15h30c8.291,0,15,6.709,15,15
		S415.291,452,407,452z"/>
</g>
<g>
	<path style="fill:#E6EEFF;" d="M317,392h-30c-8.291,0-15-6.709-15-15s6.709-15,15-15h30c8.291,0,15,6.709,15,15
		S325.291,392,317,392z"/>
	<path style="fill:#E6EEFF;" d="M317,452h-30c-8.291,0-15-6.709-15-15s6.709-15,15-15h30c8.291,0,15,6.709,15,15
		S325.291,452,317,452z"/>
</g>
<path style="fill:#FFC380;" d="M332,0v47c0,8.291,6.709,15,15,15s15-6.709,15-15V0H332z"/>
<path style="fill:#FFB766;" d="M347,62c8.291,0,15-6.709,15-15V0h-15V62z"/>
<path style="fill:#5C5F66;" d="M437,152H257c-8.291,0-15-6.709-15-15s6.709-15,15-15h180c8.291,0,15,6.709,15,15
	S445.291,152,437,152z"/>
<path style="fill:#53565C;" d="M437,122h-90v30h90c8.291,0,15-6.709,15-15S445.291,122,437,122z"/>
<path style="fill:#88CC2A;" d="M437,272H257c-8.291,0-15-6.709-15-15v-60c0-8.291,6.709-15,15-15h180c8.291,0,15,6.709,15,15v60
	C452,265.291,445.291,272,437,272z"/>
<path style="fill:#7FB335;" d="M437,182h-90v90h90c8.291,0,15-6.709,15-15v-60C452,188.709,445.291,182,437,182z"/>
<g>
</g>
<g>
</g>
<g>
</g>
<g>
</g>
<g>
</g>
<g>
</g>
<g>
</g>
<g>
</g>
<g>
</g>
<g>
</g>
<g>
</g>
<g>
</g>
<g>
</g>
<g>
</g>
<g>
</g>
</svg>
