<?xml version="1.0" encoding="iso-8859-1"?>
<!-- Generator: Adobe Illustrator 19.0.0, SVG Export Plug-In . SVG Version: 6.00 Build 0)  -->
<svg version="1.1" id="Capa_1" xmlns="http://www.w3.org/2000/svg" xmlns:xlink="http://www.w3.org/1999/xlink" x="0px" y="0px"
	 viewBox="0 0 512 512" style="enable-background:new 0 0 512 512;" xml:space="preserve">
<path style="fill:#FFCF99;" d="M437,512c-24.814,0-45-20.186-45-45v-60c0-8.291,6.709-15,15-15h60c8.291,0,15,6.709,15,15v60
	C482,491.814,461.814,512,437,512z"/>
<path style="fill:#7F838C;" d="M467,0H45C20.186,0,0,20.186,0,45v60c0,24.814,20.186,45,45,45h422c24.814,0,45-20.186,45-45V45
	C512,20.186,491.814,0,467,0z"/>
<path style="fill:#757982;" d="M467,150c24.814,0,45-20.186,45-45V45c0-24.814-20.186-45-45-45H257v150H467z"/>
<path style="fill:#FFEACC;" d="M422,497c0-174.903,0,28.59,0-422c0-8.291-6.709-15-15-15H105c-8.291,0-15,6.709-15,15v392
	c0,24.814,20.186,45,45,45c272.175,0,256.099,0,302,0C428.716,512,422,505.284,422,497z"/>
<path style="fill:#FFDBB2;" d="M407,60H257v452c147.435,0,142.317,0,180,0c-8.284,0-15-6.716-15-15c0-174.904,0,28.59,0-422
	C422,66.709,415.291,60,407,60z"/>
<g>
	<path style="fill:#A6673A;" d="M347,392H165c-8.291,0-15-6.709-15-15s6.709-15,15-15h182c8.291,0,15,6.709,15,15
		S355.291,392,347,392z"/>
	<path style="fill:#A6673A;" d="M302,256c0,17.999-10.8,35.4-30,42.299V317c0,8.399-6.599,15-15,15s-15-6.601-15-15v-18.701
		c-7.8-2.699-15.3-6.899-22.2-13.5c-6-5.7-6-15.298-0.3-21.299s15.3-6,21.301-0.3c5.4,5.099,11.1,7.8,16.199,7.8
		c2.1,0,3.9-0.601,5.7-1.201C268.4,267.4,272,262,272,256c0-8.401-6.599-15-15-15c-24.901,0-45-20.101-45-45
		c0-18.9,12.001-35.7,29.7-42.301h0.3V135c0-8.401,6.599-15,15-15s15,6.599,15,15v18.399c9.901,3.301,19.2,9.901,27.299,19.801
		c5.402,6.301,4.501,15.601-1.8,21c-6.299,5.4-15.599,4.499-20.999-1.8c-6.3-7.5-13.199-11.4-19.5-11.4c-1.8,0-3.6,0.3-5.099,0.899
		c-6,2.1-9.901,7.8-9.901,14.101c0,8.399,6.599,15,15,15C281.901,211,302,231.099,302,256z"/>
</g>
<g>
	<path style="fill:#99522E;" d="M297.499,194.2c-6.299,5.4-15.599,4.499-20.999-1.8c-6.3-7.5-13.199-11.4-19.5-11.4v-61
		c8.401,0,15,6.599,15,15v18.399c9.901,3.301,19.2,9.901,27.299,19.801C304.701,179.5,303.8,188.8,297.499,194.2z"/>
	<path style="fill:#99522E;" d="M302,256c0,17.999-10.8,35.4-30,42.299V317c0,8.399-6.599,15-15,15v-61c2.1,0,3.9-0.601,5.7-1.201
		C268.4,267.4,272,262,272,256c0-8.401-6.599-15-15-15v-30C281.901,211,302,231.099,302,256z"/>
	<path style="fill:#99522E;" d="M347,362h-90v30h90c8.291,0,15-6.709,15-15S355.291,362,347,362z"/>
</g>
<path style="fill:#A6673A;" d="M347,452H165c-8.291,0-15-6.709-15-15s6.709-15,15-15h182c8.291,0,15,6.709,15,15
	S355.291,452,347,452z"/>
<path style="fill:#99522E;" d="M347,422h-90v30h90c8.291,0,15-6.709,15-15S355.291,422,347,422z"/>
<path style="fill:#5C5F66;" d="M437,90H75c-8.291,0-15-6.709-15-15s6.709-15,15-15h362c8.291,0,15,6.709,15,15S445.291,90,437,90z"
	/>
<path style="fill:#53565C;" d="M437,60H257v30h180c8.291,0,15-6.709,15-15S445.291,60,437,60z"/>
<g>
</g>
<g>
</g>
<g>
</g>
<g>
</g>
<g>
</g>
<g>
</g>
<g>
</g>
<g>
</g>
<g>
</g>
<g>
</g>
<g>
</g>
<g>
</g>
<g>
</g>
<g>
</g>
<g>
</g>
</svg>
