<svg xmlns="http://www.w3.org/2000/svg" viewBox="0 0 153.18 153.18"><defs><style>.cls-1{fill:#f90;}.cls-2{fill:#f60;}.cls-3{fill:#f2f2e4;}.cls-4{fill:#d1cfb0;}</style></defs><title>cancel btn</title><g id="Layer_2" data-name="Layer 2"><g id="Layer_1-2" data-name="Layer 1"><polygon class="cls-1" points="44.42 153.18 0 108.76 0 44.42 44.42 0 108.76 0 153.18 44.42 153.18 108.76 108.76 153.18 44.42 153.18"/><polyline class="cls-2" points="45.95 0 108.76 0 153.18 44.42 153.18 107.22"/><polygon class="cls-3" points="119.06 57.7 95.57 34.21 76.68 53.1 57.79 34.21 34.3 57.7 53.19 76.59 34.3 95.48 57.79 118.97 76.68 100.08 95.57 118.97 119.06 95.48 100.17 76.59 119.06 57.7"/><polyline class="cls-4" points="76.68 100.08 95.57 118.97 119.06 95.48 100.17 76.59 119.06 57.7 95.57 34.21 76.68 53.1"/></g></g></svg>