<svg xmlns="http://www.w3.org/2000/svg" viewBox="0 0 189.09 189.09"><defs><style>.cls-1{fill:#6c0;}.cls-2{fill:#390;}.cls-3{fill:#fff;}.cls-4{fill:#f8f8f8;}.cls-5{fill:#eaeaed;}.cls-6{fill:#d9d9dd;}</style></defs><title>send button</title><g id="Layer_2" data-name="Layer 2"><g id="Layer_1-2" data-name="Layer 1"><circle class="cls-1" cx="94.55" cy="94.55" r="94.55"/><path class="cls-2" d="M181.4,132l-27.62-27.62-32,8.24L92.8,123l-29.67,21.6,43.75,43.75A94.66,94.66,0,0,0,181.4,132Z"/><path class="cls-3" d="M112.23,135.3a18.13,18.13,0,0,1,2-.28.44.44,0,0,1,.46.46.47.47,0,0,1-.39.52,17.31,17.31,0,0,0-1.93.27.44.44,0,0,1-.5-.4v0A.48.48,0,0,1,112.23,135.3Z"/><path class="cls-3" d="M77.63,181.47q1-1.91,2.13-3.82a.4.4,0,0,1,.59-.14.53.53,0,0,1,.12.68q-1.09,1.89-2.11,3.8a.4.4,0,0,1-.59.16.52.52,0,0,1-.2-.35A.53.53,0,0,1,77.63,181.47ZM82,173.91c.77-1.24,1.56-2.46,2.35-3.65a.39.39,0,0,1,.6-.09.54.54,0,0,1,.08.69c-.79,1.18-1.57,2.39-2.33,3.62a.39.39,0,0,1-.6.11.51.51,0,0,1-.18-.34A.56.56,0,0,1,82,173.91Zm4.83-7.19c.86-1.18,1.74-2.33,2.61-3.42a.39.39,0,0,1,.61,0,.54.54,0,0,1,0,.69c-.86,1.08-1.73,2.21-2.58,3.38a.39.39,0,0,1-.6.06.51.51,0,0,1-.15-.31A.53.53,0,0,1,86.82,166.72ZM92.2,160c1-1.1,2-2.13,2.94-3.06a.4.4,0,0,1,.61.06.55.55,0,0,1,0,.69c-.95.92-1.93,1.93-2.9,3a.39.39,0,0,1-.6,0,.52.52,0,0,1-.12-.28A.55.55,0,0,1,92.2,160Zm6-10a.44.44,0,0,1,.49-.41.49.49,0,0,1,.36.57,16.17,16.17,0,0,0-.1,3.45,31.67,31.67,0,0,1,2.64-1.83.4.4,0,0,1,.58.2.52.52,0,0,1-.17.67,31.54,31.54,0,0,0-3,2.09.45.45,0,0,1-.33.34.44.44,0,0,1-.5-.4l0-.25A17.22,17.22,0,0,1,98.15,150Zm1.55,8.44a.41.41,0,0,1,.56.25,21.72,21.72,0,0,0,1.94,3.83.54.54,0,0,1-.09.69.39.39,0,0,1-.6-.11,22.49,22.49,0,0,1-2-4,.62.62,0,0,1,0-.13A.5.5,0,0,1,99.69,158.46Zm-.17-12.89a17.29,17.29,0,0,1,2.28-3.83.39.39,0,0,1,.6,0,.54.54,0,0,1,0,.69A16.27,16.27,0,0,0,100.3,146a.41.41,0,0,1-.57.22.49.49,0,0,1-.24-.37A.54.54,0,0,1,99.53,145.57Zm4.69,20.26a.39.39,0,0,1,.6,0,17,17,0,0,0,3.19,2.48.53.53,0,0,1,.19.66.4.4,0,0,1-.58.21,17.82,17.82,0,0,1-3.36-2.61.52.52,0,0,1-.14-.31A.53.53,0,0,1,104.22,165.83Zm1.13-15.91a16.43,16.43,0,0,1,3.48-1l.46-.06c.24,0,.43.13.47.44a.48.48,0,0,1-.38.54l-.44.06a15.66,15.66,0,0,0-3.31.91.47.47,0,0,1-.57-.4A.5.5,0,0,1,105.35,149.92Zm-.5-11.21a17.78,17.78,0,0,1,3.56-2.16.42.42,0,0,1,.56.27.52.52,0,0,1-.24.64,17,17,0,0,0-3.4,2.06.4.4,0,0,1-.6-.13.54.54,0,0,1-.07-.21A.52.52,0,0,1,104.85,138.7Zm6.25,31.49a.43.43,0,0,1,.52-.36,12.71,12.71,0,0,0,3.81.5.47.47,0,0,1,.44.48.46.46,0,0,1-.42.5,13.46,13.46,0,0,1-4-.53.48.48,0,0,1-.33-.41A.59.59,0,0,1,111.1,170.19Zm1.76-20.85a.45.45,0,0,1,.47-.44,15.87,15.87,0,0,1,4,1,.51.51,0,0,1,.27.62.42.42,0,0,1-.54.31,15.21,15.21,0,0,0-3.77-.92.47.47,0,0,1-.38-.42A.6.6,0,0,1,112.86,149.34Zm6.3,20.23a9.05,9.05,0,0,0,3.21-2.21.39.39,0,0,1,.61,0,.54.54,0,0,1,0,.69,10,10,0,0,1-3.51,2.42.42.42,0,0,1-.55-.3.44.44,0,0,1,0-.1A.5.5,0,0,1,119.16,169.57Zm1.18-17.5a.39.39,0,0,1,.6-.13,13,13,0,0,1,3,3.22.54.54,0,0,1-.09.69.4.4,0,0,1-.6-.11,12.15,12.15,0,0,0-2.76-3,.52.52,0,0,1-.19-.34A.55.55,0,0,1,120.34,152.06Zm4.11,11.77a8.84,8.84,0,0,0,.36-3.8c0-.13,0-.26-.06-.4a.46.46,0,0,1,.34-.57.44.44,0,0,1,.5.39,3.43,3.43,0,0,1,.06.45,9.93,9.93,0,0,1-.4,4.27.42.42,0,0,1-.55.29.49.49,0,0,1-.28-.39A.55.55,0,0,1,124.46,163.83Z"/><path class="cls-3" d="M75,186.62q.47-1,1-2a.4.4,0,0,1,.59-.18.54.54,0,0,1,.16.67c-.33.66-.65,1.31-1,2a.4.4,0,0,1-.58.19.5.5,0,0,1-.22-.36A.54.54,0,0,1,75,186.62Z"/><polygon class="cls-4" points="63.13 144.55 92.8 122.95 114.33 137.93 121.73 112.58 153.78 104.35 69.98 37.41 63.13 144.55"/><polygon class="cls-5" points="92.8 122.95 114.33 137.93 121.73 112.58 69.98 37.41 92.8 122.95"/><polygon class="cls-6" points="92.8 122.95 114.33 137.93 69.99 37.5 92.8 122.95"/></g></g></svg>