<svg xmlns="http://www.w3.org/2000/svg" viewBox="0 0 323.94 384.9"><defs><style>.cls-1{opacity:0.2;}.cls-2{fill:#f90;}</style></defs><title>Asset 1</title><g id="Layer_2" data-name="Layer 2"><g id="Layer_1-2" data-name="Layer 1"><g class="cls-1"><path class="cls-2" d="M162,62a161,161,0,1,1-161,161A161,161,0,0,1,162,62m0-1A162,162,0,1,0,276.5,108.4,160.91,160.91,0,0,0,162,61Z"/></g><path class="cls-2" d="M192.35,54.77a15,15,0,0,1-4,5.06l4.1,3.66a2.65,2.65,0,0,0,2.05.73,2.78,2.78,0,0,0,2.13-1.1,3.51,3.51,0,0,0-.29-4.76Z"/><path class="cls-2" d="M145.3,37.17a10.64,10.64,0,0,0,0,21.26A10.35,10.35,0,0,0,155.41,47.8,10.35,10.35,0,0,0,145.3,37.17Z"/><path class="cls-2" d="M179.16,37.17A10.64,10.64,0,1,0,189.27,47.8,10.39,10.39,0,0,0,179.16,37.17Z"/><path class="cls-2" d="M162,0a73.68,73.68,0,1,0,73.68,73.68A73.68,73.68,0,0,0,162,0ZM207.3,99.27a8,8,0,0,1-7.84,8.06,7.26,7.26,0,0,1-3.08-.66v5.57a2.42,2.42,0,0,1-4.84,0V77.63a2.42,2.42,0,0,1,4.84,0V99.27a3.09,3.09,0,1,0,6.16,0V75.87a13.1,13.1,0,0,0-3.23-8.65A7.21,7.21,0,0,1,195,69.06h-.59a7.69,7.69,0,0,1-5.06-2l-5.28-4.76a13.47,13.47,0,0,1-4.84.88,14.33,14.33,0,0,1-4.69-.81L162,70.45v41.64a2.42,2.42,0,0,1-4.84,0V68.54c0-.07.07-.15.07-.22s.07-.15.07-.22.07-.15.15-.22a.23.23,0,0,1,.07-.15c0-.07.07-.15.15-.22s.07-.07.15-.15l.15-.15c.07,0,.15-.07.22-.15l11.65-7.48A15,15,0,0,1,166,54.84l-13,7.92a2.47,2.47,0,0,1-1.25.37H133.42c-6.6,0-12,5.72-12,12.68V99.19a3.09,3.09,0,1,0,6.16,0V77.63a2.42,2.42,0,0,1,4.84,0v34.61a2.42,2.42,0,0,1-4.84,0v-5.57a7.26,7.26,0,0,1-3.08.66,8,8,0,0,1-7.84-8.06V75.87c0-9.6,7.55-17.44,16.78-17.44h1.1a16,16,0,0,1-4.1-10.63,14.89,14.89,0,1,1,29.76,0,16.52,16.52,0,0,1-1.1,5.72l5.42-3.3a13.7,13.7,0,0,1-.22-2.49,14.89,14.89,0,1,1,29.76,0,18,18,0,0,1-.15,2l5.64,5.06A8.24,8.24,0,0,1,202,63a17.58,17.58,0,0,1,5.35,12.83Z"/></g></g></svg>