<svg id="Layer_1" data-name="Layer 1" xmlns="http://www.w3.org/2000/svg" viewBox="0 0 1045.5 1008.98"><defs><style>.cls-1{fill:#a7dc5e;}.cls-1,.cls-3{stroke:#006837;}.cls-1,.cls-3,.cls-4{stroke-miterlimit:10;}.cls-2{fill:#f1f1f2;}.cls-3{fill:#6bac2e;}.cls-4{fill:none;stroke:#fc0;stroke-width:15px;}.cls-5{fill:#f9bc35;}.cls-10,.cls-6{fill:#ffde33;}.cls-6{stroke:#f7931e;}.cls-7{fill:#ffbc33;}.cls-8{fill:#a6673a;stroke:#603813;}.cls-9{fill:#99522e;}.cls-11{fill:#8c4b2a;}</style></defs><title>Asset2</title><rect class="cls-1" x="366.88" y="109.97" width="299.61" height="173.43" transform="translate(82.16 537.2) rotate(-61.95)"/><path class="cls-2" d="M573.75,227.07,460.27,166.62l49-92a22.78,22.78,0,0,0,30.81-9.39l73.27,39a22.78,22.78,0,0,0,9.39,30.81Z" transform="translate(-18 -23.02)"/><rect class="cls-3" x="429.38" y="123.53" width="299.6" height="173.42" transform="translate(30.82 500.87) rotate(-50.55)"/><path class="cls-2" d="M629.1,251.34l-99.28-81.7L596,89.16A22.78,22.78,0,0,0,628.11,86l64.1,52.75a22.78,22.78,0,0,0,3.11,32.06Z" transform="translate(-18 -23.02)"/><path class="cls-4" d="M207.5,341.48H838a200,200,0,0,1,200,200v440a20,20,0,0,1-20,20H27.5a20,20,0,0,1-20-20v-440a200,200,0,0,1,200-200Z"/><path class="cls-5" d="M516.54,84.84a37.25,37.25,0,0,1,28.77,61.85,37.41,37.41,0,1,1-55.36,1,37.25,37.25,0,0,1,26.59-62.82Z" transform="translate(-18 -23.02)"/><path class="cls-6" d="M734.6,251.88v75.65A12.47,12.47,0,0,1,722.14,340H373c-9.2,0-12.47-5.49-12.47-12.47V252.71c0-62.18,50.88-113.06,113.06-113.06h148.8C684.1,139.65,734.6,190.15,734.6,251.88Z" transform="translate(-18 -23.02)"/><path class="cls-7" d="M734.78,250.4,736,326a12.47,12.47,0,0,1-12.27,12.66l-174.55,2.74L546,141.13,620.81,140C682.52,139,733.81,188.69,734.78,250.4Z" transform="translate(-18 -23.02)"/><path class="cls-8" d="M700.79,283.38,696,260.44c-8-40.65-44.14-70.91-85.54-70.91H483.82c-41.4,0-77.56,30.26-85.54,70.91l-4.74,22.94c-2.49,13.47-10.23,26.19-22.2,36.41-23.69,20.7-37,44.89-37,70.08,0,69.83,93.85,125.53,212.81,125.53S760,459.7,760,389.87C760,331,709.27,325.78,700.79,283.38Z" transform="translate(-18 -23.02)"/><path class="cls-9" d="M760.37,389.87c0,69.83-93.85,125.53-212.81,125.53V189.53h63.34c41.4,0,77.56,30.26,85.54,70.91l4.74,22.94C709.67,325.78,760.37,331,760.37,389.87Z" transform="translate(-18 -23.02)"/><path class="cls-9" d="M547.16,515.4c-61.88,0-112.22-40-112.22-88.12a12.47,12.47,0,0,1,24.94,0c0,34.38,39.16,63.18,87.29,63.18s87.29-28.8,87.29-63.18a12.47,12.47,0,0,1,24.94,0C659.39,475.4,609,515.4,547.16,515.4Z" transform="translate(-18 -23.02)"/><path class="cls-10" d="M585,377.65A37.16,37.16,0,0,1,560,412.81v14.45a12.62,12.62,0,0,1-11.31,12.68,12.37,12.37,0,0,1-13.63-12.42V412.81a49.74,49.74,0,0,1-18.45-11.22,12.52,12.52,0,1,1,17.46-18c4.49,4.24,9.23,6.48,13.47,6.48a14.58,14.58,0,0,0,4.74-1,12.41,12.41,0,0,0,7.39-14.39,12.73,12.73,0,0,0-12.44-9.55,37.4,37.4,0,0,1-12.41-72.57h.25V278.16a12.62,12.62,0,0,1,11.31-12.68A12.37,12.37,0,0,1,560,277.9v14.46c8.23,2.74,16,8.23,22.69,16.46a12.39,12.39,0,1,1-19,16c-5.24-6.23-11-9.48-16.21-9.48a11.66,11.66,0,0,0-4.24.75,12.43,12.43,0,0,0-7.92,14.51,12.67,12.67,0,0,0,12.41,9.69A37.36,37.36,0,0,1,585,377.65Z" transform="translate(-18 -23.02)"/><path class="cls-7" d="M581.23,326a12.32,12.32,0,0,1-17.46-1.5c-5.24-6.23-11-9.48-16.21-9.48V265.18A12.35,12.35,0,0,1,560,277.65v14.46c8.23,2.74,16,8.23,22.69,16.46A12.32,12.32,0,0,1,581.23,326Z" transform="translate(-18 -23.02)"/><path class="cls-7" d="M585,377.4A37.16,37.16,0,0,1,560,412.56v14.71a12.35,12.35,0,0,1-12.47,12.47V389.87a14.58,14.58,0,0,0,4.74-1,12.43,12.43,0,0,0-4.74-23.94V340A37.36,37.36,0,0,1,585,377.4Z" transform="translate(-18 -23.02)"/><path class="cls-11" d="M659.79,427.28a12.47,12.47,0,0,0-14.11-12.36c-6.3.8-10.77,6.42-10.83,12.76-.3,34.2-39.35,62.78-87.28,62.78V515.4C609.45,515.4,659.79,475.4,659.79,427.28Z" transform="translate(-18 -23.02)"/></svg>